<svg id="Lager_1" data-name="Lager 1" xmlns="http://www.w3.org/2000/svg" xmlns:xlink="http://www.w3.org/1999/xlink" viewBox="0 0 306.45 85.47"><defs><style>.cls-1{fill:none;}.cls-2{clip-path:url(#clip-path);}.cls-3{fill:#120a00;}.cls-4{fill:#cf0a2c;}.cls-5{clip-path:url(#clip-path-2);}.cls-6{fill:#1d1d1b;}.cls-7{clip-path:url(#clip-path-3);}</style><clipPath id="clip-path" transform="translate(-12.99 -9.08)"><rect class="cls-1" x="13.01" y="9.08" width="303.02" height="65.23"/></clipPath><clipPath id="clip-path-2" transform="translate(-12.99 -9.08)"><rect class="cls-1" x="6.54" y="4.9" width="311.39" height="69.45"/></clipPath><clipPath id="clip-path-3" transform="translate(-12.99 -9.08)"><rect class="cls-1" x="6.54" y="4.9" width="312.9" height="89.4"/></clipPath></defs><title>RW_TAG_PMS186 (1)</title><g class="cls-2"><path class="cls-3" d="M58.68,25.57c0-9.1-9.55-13.52-15.32-13.52-9.73,0-21.17,6.94-21.17,19,0,7.66,6.58,5.5,6.58,7.84,0,0.9-1.26,1.89-5,1.89-4.78,0-9.37-3.33-9.37-9.73,0-13.25,15-22,29.73-22,13,0,22.35,6,22.35,17.75,0,10.09-8.56,19-17.48,21.8C50.4,57.56,54,67.11,58,72a2.55,2.55,0,0,1,.63,1.44,1,1,0,0,1-1.17.9c-5.5,0-13-12.53-14.87-24.87-3.51-.27-4.87-1.53-4.87-2.17a1.08,1.08,0,0,1,1-1.08c0.54,0,1.26.27,2.16,0.27a6.76,6.76,0,0,0,1.35-.09A20.33,20.33,0,0,1,42.11,44c0-3.52,2.89-5.59,4.24-5.59,2.52,0,2.16,2.7,2.25,5.59C54.9,40.35,58.68,33.5,58.68,25.57m-21.8-4.06A7.33,7.33,0,0,1,43,16.92a1.62,1.62,0,0,1,1.89,1.71,2.86,2.86,0,0,1-.18,1.17l-15,43.43a7.52,7.52,0,0,1-6.31,4.59,1.55,1.55,0,0,1-1.8-1.53A3.54,3.54,0,0,1,21.92,65ZM86,55.57a0.88,0.88,0,0,1,1,.9A4.32,4.32,0,0,1,85.72,59c-4.51,5.23-10.9,8.83-16.94,8.83-5.86,0-10.27-3.87-10.27-9.55,0-8.2,6.76-17.48,16.76-17.48,4.5,0,6.67,2.7,6.67,5.49,0,4.87-6.76,11-13.06,13.88a2.33,2.33,0,0,1-1,.27,1.15,1.15,0,0,1-1.26-1.08,2.65,2.65,0,0,1,1.26-1.89c5.68-4.51,7.57-8.56,7.57-11,0-1.71-.81-2.52-2.07-2.52C69.5,44,65.08,50.89,65.08,57c0,4.14,2.7,6.39,6.58,6.39s8.56-2.16,12.79-7.12A2.06,2.06,0,0,1,86,55.57M97.52,43.32a7.2,7.2,0,0,1,5.32-2.43c4.24,0,7.66,3.88,7.66,9.28a16,16,0,0,1-3,9.1,6.68,6.68,0,0,0,2,.27,9.35,9.35,0,0,0,7.3-3.24,2.06,2.06,0,0,1,1.53-.72,0.88,0.88,0,0,1,1,.9A4.66,4.66,0,0,1,118.07,59a12.12,12.12,0,0,1-9.28,4.5,13.4,13.4,0,0,1-4.23-.72c-3.33,3.16-7.48,5-11.17,5-4.87,0-8.92-3.33-8.92-11.35,0-22.08,14.33-47.4,19.73-47.4,1.17,0,2,1.35,2,4.32,0,8.29-3.87,20.09-8.65,29.92M99.06,18.9c-1.8,0-7.75,19.37-8.2,31C96.26,39.44,99.6,24.22,99.6,21c0-1.44-.18-2.07-0.54-2.07m-8.11,36c0.36,6,2.07,9,5.68,9a7.16,7.16,0,0,0,5-2.52,13.16,13.16,0,0,1-6.49-11,10.19,10.19,0,0,1,.54-3.24,73.15,73.15,0,0,1-4.69,7.75m7.21-5c0,3.51,2.34,6.49,5.59,8.2a15,15,0,0,0,1-5.59c0-3.43-1-7.12-3.42-7.12s-3.16,2-3.16,4.51m43.7,5.76a0.88,0.88,0,0,1,1,.9A4.31,4.31,0,0,1,141.59,59c-4.5,5.23-10.9,8.83-16.94,8.83-5.86,0-10.27-3.87-10.27-9.55,0-8.2,6.75-17.48,16.76-17.48,4.51,0,6.67,2.7,6.67,5.49,0,4.87-6.76,11-13.07,13.88a2.3,2.3,0,0,1-1,.27,1.15,1.15,0,0,1-1.26-1.08,2.66,2.66,0,0,1,1.26-1.89c5.68-4.51,7.57-8.56,7.57-11,0-1.71-.81-2.52-2.07-2.52C125.37,44,121,50.89,121,57c0,4.14,2.7,6.39,6.58,6.39s8.56-2.16,12.79-7.12a2.07,2.07,0,0,1,1.53-.72m4.24,0.18c0.63,7.39,3.6,12.7,10.18,14.78,1.08,0.36,1.54.72,1.54,1.08,0,0.54-1.26,1.08-3.43,1.08-8.38,0-14.78-7.57-14.78-16.21,0-22.17,14.69-47.4,20.19-47.4,1.26,0,2.07,1.35,2.07,4.32,0,10.9-8.2,32.08-15.77,42.35M146,51c6.39-11.35,9.28-28.56,9.28-30s-0.18-2.07-.54-2.07c-1.71,0-6.4,13.79-8.11,25.14-0.36,2.52-.54,4.86-0.63,6.94m54.87,6.49c1.17,4.77,3.6,5.85,5.14,5.85,7.39,0,19.55-25.14,19.55-42.44,0-.9-0.27-1.89-0.27-3.06a5.94,5.94,0,0,1,1.08-3.6c1.08-1.62,4.33-5.13,6.58-5.13,1.44,0,2.53,1.35,2.53,5.23,0,15.77-15.77,53.52-32.89,53.52-3.42,0-5.95-2.25-7.48-5.31-5.14,3.87-9.28,5.31-12.52,5.31a8.79,8.79,0,0,1-8.83-9,27.85,27.85,0,0,1,1.71-8c3.79-11.54,9.37-18.74,13.61-29.65a12,12,0,0,0,.81-4c0-2.79-1.62-4.33-4.05-4.33-2.7,0-6.31,1.8-9.64,5.95-3.69,4.59-5,8.92-5,12.07s1.35,5.23,3,5.23c0.45,0,1-.18,1.35-0.18a0.84,0.84,0,0,1,1,.9c0,2.07-3.16,4-5.59,4-3.24,0-7.12-2.79-7.12-7.93,0-9.74,14.24-23.79,24.78-23.79,6.67,0,8.83,3.24,8.83,7.12a14.36,14.36,0,0,1-1,5C191.24,34.94,181.6,49.72,181.6,57.1c0,3.51,1.8,5.13,4.41,5.13,2.16,0,4.87-1.08,7.75-3.15a17.37,17.37,0,0,1-.73-5.23c0-15.5,11.81-31.81,19.28-31.81,2.44,0,4,2.7,4,5.14,0,9.1-4.33,19.28-15.41,30.28m-0.72-4.78c7.57-9.64,9.73-21.08,9.73-23.88,0-.9-0.27-1.26-0.63-1.26-2.16,0-9.19,11.9-9.19,21.9,0,1.17,0,2.25.09,3.24m44.51,15.14c-2.7,0-4.05-1.44-4.33-3.6a9.64,9.64,0,0,1-7.11,3.6,7.9,7.9,0,0,1-7.66-8.2c0-8.2,8.38-18.83,19-18.83,4.5,0,8,1.8,8,5.41a5.28,5.28,0,0,1-5.41,5.4c-1.26,0-3.24-.36-3.24-1.53s2.79-.54,2.79-3.42c0-1.8-1.8-2.43-3.6-2.43-6.49,0-11.17,9-11.17,14.6,0,2.53,1,5,3.33,5,1.89,0,5-2.71,6.49-6.67,1-2.7,3.79-4.51,5.68-4.51a1.38,1.38,0,0,1,1.62,1.44,4.49,4.49,0,0,1-.27,1.35c-0.36,1.17-2.25,6.58-2.25,7.39a0.69,0.69,0,0,0,.72.81c1.35,0,4.87-2.34,9.19-7.39a2.06,2.06,0,0,1,1.53-.72,0.88,0.88,0,0,1,1,.9A4.33,4.33,0,0,1,257.74,59c-5,5.86-9.91,8.83-13.07,8.83m17.48-12c0.27,5.31,1.35,7.21,2.71,7.21,2.07,0,5.13-2.88,8.47-6.76a2.22,2.22,0,0,1,1.53-.72,0.93,0.93,0,0,1,1.08,1A4.71,4.71,0,0,1,274.59,59c-5.4,6.4-9.37,8.83-12.43,8.83-4.42,0-6.4-5.31-6.4-11.35,0-22,14.78-47.4,20.18-47.4,1.26,0,2.07,1.35,2.07,4.32,0,11-8.29,32.26-15.86,42.44m0-5c6.31-11.35,9.28-28.47,9.28-29.91s-0.18-2.07-.54-2.07c-1.71,0-6.31,13.79-8.11,25.14a49.28,49.28,0,0,0-.63,6.85m16.85,5c0.27,5.31,1.35,7.21,2.7,7.21,2.07,0,5.14-2.88,8.47-6.76a2.22,2.22,0,0,1,1.53-.72,0.93,0.93,0,0,1,1.08,1A4.74,4.74,0,0,1,291.44,59c-5.41,6.4-9.37,8.83-12.44,8.83-4.41,0-6.4-5.31-6.4-11.35,0-22,14.77-47.4,20.18-47.4,1.27,0,2.08,1.35,2.08,4.32,0,11-8.29,32.26-15.86,42.44m0-5c6.31-11.35,9.28-28.47,9.28-29.91s-0.18-2.07-.54-2.07c-1.71,0-6.3,13.79-8.11,25.14a49.55,49.55,0,0,0-.63,6.85m16.94-1.8A9.2,9.2,0,0,1,294.05,44c0-5.32,6.22-9.91,10-9.91a2.51,2.51,0,0,1,2.79,2.79c0,2.79-3,6.76-5.13,9.46,2.61,3.25,6.12,7,6.12,11.18,4.78,0.63,8.2,2.61,8.2,5.94,0,1.8-1.62,5.68-3.33,5.68a0.57,0.57,0,0,1-.63-0.63c0-.63.54-1.17,0.54-2.34,0-2.25-2-4-5.59-4.77-1.89,4.86-6.85,6.48-11.08,6.48-2.07,0-6.4-.9-6.4-3.69s4.24-5.59,12.34-6.58c-0.81-2.16-2.61-4.06-4.23-6.13L291.44,59a2.07,2.07,0,0,1-1.53.72,0.9,0.9,0,0,1-1-1,4.4,4.4,0,0,1,1.26-2.43c1.62-1.89,3.87-4.78,5.77-7.21m6.13,11.71c-3.6,0-7.84.27-7.84,2.61a1.7,1.7,0,0,0,2,1.71,6.05,6.05,0,0,0,5.86-4.32M299,41a5.12,5.12,0,0,0,.9,2.7c1.17-1.81,2.25-3.61,2.34-4.87,0-.63-0.18-1-0.63-1-1.09,0-2.62,1.62-2.62,3.15" transform="translate(-12.99 -9.08)"/><path class="cls-4" d="M57.23,25.57c0-9.1-9.55-13.52-15.32-13.52-9.73,0-21.17,6.94-21.17,19,0,7.66,6.58,5.5,6.58,7.84,0,0.9-1.26,1.89-5,1.89-4.78,0-9.37-3.33-9.37-9.73,0-13.25,15-22,29.73-22,13,0,22.34,6,22.34,17.75,0,10.09-8.56,19-17.48,21.8,1.35,8.92,5,18.47,8.92,23.34a2.55,2.55,0,0,1,.63,1.44,1,1,0,0,1-1.17.9c-5.5,0-13-12.53-14.87-24.87-3.51-.27-4.86-1.53-4.86-2.17a1.08,1.08,0,0,1,1-1.08c0.54,0,1.26.27,2.16,0.27a6.77,6.77,0,0,0,1.35-.09A19.89,19.89,0,0,1,40.65,44c0-3.52,2.89-5.59,4.24-5.59,2.52,0,2.16,2.7,2.25,5.59,6.31-3.69,10.09-10.54,10.09-18.47m-21.8-4.06a7.34,7.34,0,0,1,6.13-4.6,1.62,1.62,0,0,1,1.89,1.71,2.87,2.87,0,0,1-.18,1.17l-15,43.43A7.53,7.53,0,0,1,22,67.83a1.54,1.54,0,0,1-1.8-1.53A3.57,3.57,0,0,1,20.47,65ZM84.54,55.57a0.88,0.88,0,0,1,1,.9A4.31,4.31,0,0,1,84.26,59c-4.5,5.23-10.9,8.83-16.94,8.83-5.86,0-10.27-3.87-10.27-9.55,0-8.2,6.76-17.48,16.76-17.48,4.51,0,6.67,2.7,6.67,5.49,0,4.87-6.76,11-13.06,13.88a2.33,2.33,0,0,1-1,.27,1.15,1.15,0,0,1-1.26-1.08,2.66,2.66,0,0,1,1.26-1.89C72.1,53,74,48.9,74,46.47c0-1.71-.81-2.52-2.07-2.52C68,44,63.63,50.89,63.63,57c0,4.14,2.7,6.39,6.58,6.39S78.77,61.25,83,56.29a2.07,2.07,0,0,1,1.53-.72M96.07,43.32a7.2,7.2,0,0,1,5.32-2.43c4.23,0,7.66,3.88,7.66,9.28a16.06,16.06,0,0,1-3,9.1,6.67,6.67,0,0,0,2,.27,9.35,9.35,0,0,0,7.3-3.24,2.06,2.06,0,0,1,1.53-.72,0.88,0.88,0,0,1,1,.9A4.66,4.66,0,0,1,116.62,59a12.13,12.13,0,0,1-9.28,4.5,13.41,13.41,0,0,1-4.24-.72c-3.33,3.16-7.48,5-11.17,5-4.87,0-8.92-3.33-8.92-11.35,0-22.08,14.33-47.4,19.73-47.4,1.17,0,2,1.35,2,4.32,0,8.29-3.88,20.09-8.65,29.92M97.6,18.9c-1.8,0-7.75,19.37-8.2,31C94.81,39.44,98.15,24.22,98.15,21c0-1.44-.18-2.07-0.54-2.07m-8.11,36c0.36,6,2.07,9,5.68,9a7.16,7.16,0,0,0,5-2.52,13.16,13.16,0,0,1-6.49-11,10.1,10.1,0,0,1,.54-3.24,73.73,73.73,0,0,1-4.69,7.75m7.21-5c0,3.51,2.34,6.49,5.59,8.2a15,15,0,0,0,1-5.59c0-3.43-1-7.12-3.42-7.12s-3.16,2-3.16,4.51m43.7,5.76a0.88,0.88,0,0,1,1,.9A4.31,4.31,0,0,1,140.13,59c-4.51,5.23-10.9,8.83-16.94,8.83-5.86,0-10.27-3.87-10.27-9.55,0-8.2,6.76-17.48,16.76-17.48,4.5,0,6.67,2.7,6.67,5.49,0,4.87-6.76,11-13.07,13.88a2.32,2.32,0,0,1-1,.27A1.15,1.15,0,0,1,121,59.36a2.66,2.66,0,0,1,1.26-1.89c5.68-4.51,7.57-8.56,7.57-11,0-1.71-.81-2.52-2.07-2.52-3.87,0-8.29,6.94-8.29,13.07,0,4.14,2.7,6.39,6.58,6.39s8.56-2.16,12.79-7.12a2.06,2.06,0,0,1,1.53-.72m4.24,0.18c0.63,7.39,3.6,12.7,10.18,14.78,1.08,0.36,1.54.72,1.54,1.08,0,0.54-1.26,1.08-3.43,1.08-8.38,0-14.78-7.57-14.78-16.21,0-22.17,14.69-47.4,20.18-47.4,1.26,0,2.07,1.35,2.07,4.32,0,10.9-8.2,32.08-15.77,42.35M144.55,51c6.4-11.35,9.28-28.56,9.28-30s-0.18-2.07-.54-2.07c-1.71,0-6.4,13.79-8.11,25.14-0.36,2.52-.54,4.86-0.63,6.94m54.87,6.49c1.17,4.77,3.61,5.85,5.13,5.85,7.39,0,19.56-25.14,19.56-42.44,0-.9-0.27-1.89-0.27-3.06a5.94,5.94,0,0,1,1.08-3.6c1.08-1.62,4.33-5.13,6.58-5.13,1.44,0,2.53,1.35,2.53,5.23,0,15.77-15.77,53.52-32.89,53.52-3.42,0-5.94-2.25-7.48-5.31-5.13,3.87-9.28,5.31-12.52,5.31a8.79,8.79,0,0,1-8.83-9,27.9,27.9,0,0,1,1.71-8c3.79-11.54,9.37-18.74,13.61-29.65a11.92,11.92,0,0,0,.81-4c0-2.79-1.62-4.33-4.05-4.33-2.7,0-6.31,1.8-9.64,5.95-3.69,4.59-5,8.92-5,12.07s1.35,5.23,3,5.23c0.45,0,1-.18,1.35-0.18a0.84,0.84,0,0,1,1,.9c0,2.07-3.16,4-5.59,4-3.24,0-7.12-2.79-7.12-7.93,0-9.74,14.24-23.79,24.78-23.79,6.67,0,8.83,3.24,8.83,7.12a14.36,14.36,0,0,1-1,5c-5.14,13.69-14.78,28.47-14.78,35.86,0,3.51,1.81,5.13,4.42,5.13,2.16,0,4.87-1.08,7.75-3.15a17.37,17.37,0,0,1-.72-5.23c0-15.5,11.8-31.81,19.28-31.81,2.43,0,4,2.7,4,5.14,0,9.1-4.33,19.28-15.41,30.28m-0.72-4.78c7.57-9.64,9.73-21.08,9.73-23.88,0-.9-0.27-1.26-0.63-1.26-2.16,0-9.19,11.9-9.19,21.9,0,1.17,0,2.25.09,3.24m44.51,15.14c-2.71,0-4.05-1.44-4.33-3.6a9.64,9.64,0,0,1-7.11,3.6,7.9,7.9,0,0,1-7.66-8.2c0-8.2,8.38-18.83,19-18.83,4.51,0,8,1.8,8,5.41a5.28,5.28,0,0,1-5.41,5.4c-1.26,0-3.24-.36-3.24-1.53s2.79-.54,2.79-3.42c0-1.8-1.8-2.43-3.6-2.43-6.49,0-11.17,9-11.17,14.6,0,2.53,1,5,3.33,5,1.9,0,5-2.71,6.49-6.67,1-2.7,3.79-4.51,5.68-4.51a1.38,1.38,0,0,1,1.62,1.44,4.55,4.55,0,0,1-.27,1.35c-0.36,1.17-2.25,6.58-2.25,7.39a0.69,0.69,0,0,0,.72.81c1.35,0,4.87-2.34,9.19-7.39a2.06,2.06,0,0,1,1.53-.72,0.88,0.88,0,0,1,1,.9A4.31,4.31,0,0,1,256.29,59c-5,5.86-9.91,8.83-13.07,8.83m17.48-12c0.27,5.31,1.35,7.21,2.7,7.21,2.07,0,5.13-2.88,8.47-6.76a2.23,2.23,0,0,1,1.54-.72,0.93,0.93,0,0,1,1.08,1A4.72,4.72,0,0,1,273.13,59c-5.41,6.4-9.37,8.83-12.43,8.83-4.42,0-6.4-5.31-6.4-11.35,0-22,14.78-47.4,20.18-47.4,1.26,0,2.07,1.35,2.07,4.32,0,11-8.29,32.26-15.86,42.44m0-5C267,39.53,270,22.41,270,21s-0.18-2.07-.54-2.07c-1.71,0-6.31,13.79-8.11,25.14a49.42,49.42,0,0,0-.63,6.85m16.85,5c0.27,5.31,1.35,7.21,2.7,7.21,2.07,0,5.14-2.88,8.47-6.76a2.23,2.23,0,0,1,1.54-.72,0.93,0.93,0,0,1,1.08,1A4.74,4.74,0,0,1,290,59c-5.41,6.4-9.37,8.83-12.44,8.83-4.41,0-6.4-5.31-6.4-11.35,0-22,14.78-47.4,20.18-47.4,1.26,0,2.07,1.35,2.07,4.32,0,11-8.29,32.26-15.86,42.44m0-5c6.31-11.35,9.28-28.47,9.28-29.91s-0.18-2.07-.54-2.07c-1.71,0-6.31,13.79-8.11,25.14a49.88,49.88,0,0,0-.63,6.85m16.94-1.8A9.23,9.23,0,0,1,292.6,44c0-5.32,6.22-9.91,10-9.91a2.51,2.51,0,0,1,2.79,2.79c0,2.79-3,6.76-5.13,9.46,2.62,3.25,6.13,7,6.13,11.18,4.77,0.63,8.2,2.61,8.2,5.94,0,1.8-1.62,5.68-3.33,5.68a0.57,0.57,0,0,1-.63-0.63c0-.63.54-1.17,0.54-2.34,0-2.25-2-4-5.58-4.77-1.9,4.86-6.85,6.48-11.09,6.48-2.07,0-6.4-.9-6.4-3.69s4.24-5.59,12.34-6.58c-0.81-2.16-2.61-4.06-4.23-6.13L290,59a2.08,2.08,0,0,1-1.53.72,0.9,0.9,0,0,1-1-1,4.39,4.39,0,0,1,1.26-2.43c1.62-1.89,3.87-4.78,5.76-7.21m6.13,11.71c-3.61,0-7.84.27-7.84,2.61a1.69,1.69,0,0,0,2,1.71,6.06,6.06,0,0,0,5.86-4.32M297.55,41a5.11,5.11,0,0,0,.9,2.7c1.17-1.81,2.25-3.61,2.34-4.87,0-.63-0.18-1-0.63-1-1.08,0-2.61,1.62-2.61,3.15" transform="translate(-12.99 -9.08)"/></g><g class="cls-5"><path class="cls-6" d="M229.34,94.39V93.12h-3.68V89h3.12V87.72h-3.12V84.36h3.57V83.09h-5v11.3h5.09Zm-8.4-4h-1.31v0.83a2.37,2.37,0,0,1-.51,1.87,1.16,1.16,0,0,1-.75.24,1.29,1.29,0,0,1-1.14-.56,3.35,3.35,0,0,1-.23-1.47c0-.85,0-1.68,0-2.53a23.17,23.17,0,0,1,.16-3.71,1.2,1.2,0,0,1,1.28-1,1.15,1.15,0,0,1,.72.22,1.2,1.2,0,0,1,.43,1.09c0,0.42,0,.83,0,1.23h1.3c0-.24,0-0.5,0-0.74a3,3,0,0,0-.59-2.27,2.55,2.55,0,0,0-1.89-.72,2.78,2.78,0,0,0-2.22.93,5.15,5.15,0,0,0-.59,2.87c0,0.64,0,1.26,0,1.91v1.81c0,1.57,0,2.4.48,3.06a2.8,2.8,0,0,0,.53.58,2.63,2.63,0,0,0,1.71.5,3.78,3.78,0,0,0,1.25-.19,2,2,0,0,0,1.33-1.76,6.79,6.79,0,0,0,.06-1c0-.4,0-0.8,0-1.2m-8.8,4V83.09h-1.36L211,93l-2.29-9.89h-1.94v11.3h1.39L208,84.6l2.21,9.79h2Zm-8.56,0V93.12H199.9V89H203V87.72H199.9V84.36h3.57V83.09h-5v11.3h5.09Zm-10-8.07c0,0.59,0,1.58-.69,1.87a3.49,3.49,0,0,1-1.23.13H191v-4h0.69c0.69,0,1.55-.06,1.84.75a3.76,3.76,0,0,1,.13,1.2m1.91,8.07-2-5.12a1.66,1.66,0,0,0,.94-0.58,2.47,2.47,0,0,0,.46-1.18A8.4,8.4,0,0,0,195,86.1a2.55,2.55,0,0,0-3-3h-2.46v11.3H191v-5h1.17l1.92,5h1.47Zm-9.12,0V93.12h-3.68V89h3.12V87.72h-3.12V84.36h3.57V83.09h-5v11.3h5.09Zm-8-10V83.09h-5v11.3h1.42V88.92h3.09V87.68h-3.09V84.36h3.55Zm-7.92,0V83.09h-5v11.3h1.42V88.92H170V87.68h-3.09V84.36h3.55ZM162,83.09h-1.39v11.3H162V83.09Zm-6.19,6.11a24.92,24.92,0,0,1-.09,2.91,1.06,1.06,0,0,1-.56.85,2.48,2.48,0,0,1-1.12.18h-0.93V84.39h0.72a2.34,2.34,0,0,1,1.57.34,2.29,2.29,0,0,1,.4,1.69c0,0.93,0,1.86,0,2.79m1.39-1c0-1.33,0-2.51-.08-3a2.2,2.2,0,0,0-1.26-1.82,4.89,4.89,0,0,0-2-.26h-2.13v11.3h2.11a4.43,4.43,0,0,0,2.13-.31,2.47,2.47,0,0,0,1.18-2.16q0-.62,0-1.25c0-.83,0-1.68,0-2.51M141.58,91h-2.14l1-5.81Zm2.11,3.39-2.5-11.3h-1.41l-2.43,11.3h1.46l0.38-2.18h2.62l0.4,2.18h1.47Zm-14,0V93.12h-3.68V89h3.12V87.72h-3.12V84.36h3.57V83.09h-5v11.3h5.09Zm-7.81,0-2.67-7,2.67-4.26h-1.57L117.46,88V83.09h-1.39v11.3h1.39V90l0.91-1.36,2,5.78h1.57ZM111.23,91h-2.14l1-5.81Zm2.11,3.39-2.5-11.3h-1.41L107,94.39h1.46l0.38-2.18h2.62l0.4,2.18h1.47Zm-9.06,0V83.09h-2.14l-1.55,10.08L99,83.09H96.89v11.3h1.38L98,84.16l1.68,10.23h1.78l1.68-10.23L103,94.39h1.3Z" transform="translate(-12.99 -9.08)"/><path class="cls-6" d="M84.82,88A2.91,2.91,0,0,1,85,87.13a2,2,0,0,1,.76-0.44,2.94,2.94,0,0,1,.64-0.59,2.34,2.34,0,0,1,.9.06,2.63,2.63,0,0,1,.94-0.05,2.58,2.58,0,0,1,.61.55,2.69,2.69,0,0,1,.77.45,2.69,2.69,0,0,1,.19.84,2.79,2.79,0,0,1,.36.81,1.79,1.79,0,0,1-.34.81h0a5.33,5.33,0,0,1-.16.83,1.68,1.68,0,0,1-.76.48,3.83,3.83,0,0,1-.7.63,3,3,0,0,1-.86-0.1,2.56,2.56,0,0,1-1,.06,2.7,2.7,0,0,1-.58-0.53,3.23,3.23,0,0,1-.81-0.5,2.11,2.11,0,0,1-.15-0.79,3.42,3.42,0,0,1-.37-0.86,1.31,1.31,0,0,1,.27-0.67L84.82,88" transform="translate(-12.99 -9.08)"/><path class="cls-6" d="M235.77,88a2.88,2.88,0,0,1,.17-0.84,2,2,0,0,1,.76-0.44,3,3,0,0,1,.64-0.59,2.34,2.34,0,0,1,.9.06,2.64,2.64,0,0,1,.95-0.05,2.55,2.55,0,0,1,.61.55,2.71,2.71,0,0,1,.77.45,2.67,2.67,0,0,1,.19.84,2.81,2.81,0,0,1,.36.81,1.82,1.82,0,0,1-.34.81h0a5.64,5.64,0,0,1-.16.83,1.68,1.68,0,0,1-.76.48,3.9,3.9,0,0,1-.7.63,3,3,0,0,1-.86-0.1,2.57,2.57,0,0,1-1,.06,2.67,2.67,0,0,1-.58-0.53,3.24,3.24,0,0,1-.81-0.5,2.16,2.16,0,0,1-.15-0.79,3.42,3.42,0,0,1-.37-0.86,1.32,1.32,0,0,1,.27-0.67l0.07-.16" transform="translate(-12.99 -9.08)"/></g><g class="cls-7"><path class="cls-6" d="M313.91,38V36.31h1.42c0.63,0,1.23.1,1.23,0.82,0,1-1,.85-1.73.85h-0.91Zm0,0.6H315l1.45,2.29h0.74l-1.54-2.29a1.43,1.43,0,0,0,1.59-1.44c0-.92-0.46-1.43-1.8-1.43h-2.22v5.16h0.66V38.58Zm1,3.54a3.79,3.79,0,1,1,3.78-3.8,3.67,3.67,0,0,1-3.78,3.8m0,0.72a4.51,4.51,0,1,0-4.52-4.52,4.51,4.51,0,0,0,4.52,4.52" transform="translate(-12.99 -9.08)"/><path class="cls-6" d="M241.09,88.67A2.3,2.3,0,1,0,238.78,91a2.33,2.33,0,0,0,2.31-2.29m-10.73,5.41v-1.2h-4.29V89.13H230v-1.2h-3.9V84.45h4.2v-1.2h-5.58V94.08h5.67Zm-8.8-7.84c0.13-2.1-.69-3.21-2.83-3.21s-3.48.87-3.48,3.93V90c0,4.2,2.07,4.29,3.42,4.29,0.71,0,3.12,0,3.06-3.42H220.3c0,2.12-1.29,2.27-1.71,2.27-1.07,0-1.94-.32-1.94-3v-2.9c0-1.86.27-2.13,0.32-2.25a1.69,1.69,0,0,1,1.64-.84,1.8,1.8,0,0,1,1.22.46,2.52,2.52,0,0,1,.32,1.58h1.42ZM210.23,90.3h-3.46l1.69-5.78h0Zm-6,3.78h1.39l0.81-2.58h4.18l0.78,2.58h1.54l-3.52-10.83h-1.75Zm-6,0V89.31H200a2.8,2.8,0,0,0,3-3c0-2.55-1.56-3.09-3-3.09h-3.21V94.08h1.38Zm0-9.63h1.91a1.58,1.58,0,0,1,1.53,1.82,1.72,1.72,0,0,1-1.92,1.85h-1.51V84.45ZM187,90.86c0,1,0,3.48,3.16,3.45,1.79,0,3.36-.73,3.36-3,0-3.44-4.86-3.09-4.86-5.48a1.51,1.51,0,0,1,1.66-1.59c1.31,0,1.68.78,1.67,2h1.44c0.09-2.21-1-3.16-3-3.16A2.86,2.86,0,0,0,187.24,86c0,3.26,4.86,3,4.86,5.39a1.66,1.66,0,0,1-1.94,1.75,1.71,1.71,0,0,1-1.82-1.93V90.86H187ZM176.62,89.1a1.43,1.43,0,0,1,1.64,1.38c0.12,1.44,0,2.85.42,3.6h1.44a16.47,16.47,0,0,1-.37-2.83c-0.07-2.17-.52-2.59-1.77-2.79v0a2.34,2.34,0,0,0,2-2.48,2.44,2.44,0,0,0-2.59-2.7h-3.73V94.08H175v-5h1.62ZM175,84.45h2.09a1.47,1.47,0,0,1,1.46,1.65,1.58,1.58,0,0,1-1.47,1.8H175V84.45Zm-11.55,5.67c0,3,1.11,4.18,3.4,4.18s3.4-1.18,3.4-4.18V83.25h-1.38v6.93c0,2.37-.72,3-2,3s-2-.6-2-3V83.25h-1.38v6.87Zm-6.75,3c-1.31,0-2-.6-2-3V86.52c0-2.27,1.56-2.34,2-2.34s2,0.07,2,2.34v3.66c0,2.37-.69,3-2,3m0,1.15c2.29,0,3.4-1.18,3.4-4.18V86.57c0-2.16-1.11-3.54-3.4-3.54s-3.4,1.38-3.4,3.54v3.55c0,3,1.11,4.18,3.4,4.18m-9.29-5.82-2.11-5.23h-1.55l2.91,6.7v4.12H148V90l3-6.7H149.6Zm-19.07-4h0l3,9.63h1.31l3-9.63h0v9.63h1.38V83.25h-2.28l-2.76,9.09h0l-2.73-9.09h-2.23V94.08h1.29V84.45Zm-4.91-1.2h-1.38V94.08h1.38V83.25Zm-6.69,7.05h-3.46L115,84.53h0Zm-6,3.78h1.39l0.81-2.58h4.18l0.78,2.58h1.54l-3.52-10.83h-1.75Zm-1.31,0v-1.2h-4V83.25h-1.38V94.08h5.35Zm-8.49-7.84c0.13-2.1-.69-3.21-2.83-3.21s-3.48.87-3.48,3.93V90c0,4.2,2.07,4.29,3.42,4.29,0.7,0,3.12,0,3.06-3.42H99.68c0,2.12-1.29,2.27-1.71,2.27-1.07,0-1.94-.32-1.94-3v-2.9c0-1.86.27-2.13,0.31-2.25A1.69,1.69,0,0,1,98,84.2a1.81,1.81,0,0,1,1.22.46,2.52,2.52,0,0,1,.32,1.58h1.42ZM88,88.67A2.3,2.3,0,1,0,85.72,91,2.33,2.33,0,0,0,88,88.67" transform="translate(-12.99 -9.08)"/></g></svg>